<?xml version="1.0" encoding="UTF-8" standalone="no"?>
<!-- Created with Inkscape (http://www.inkscape.org/) -->

<svg
   version="1.1"
   id="svg2"
   xml:space="preserve"
   width="752"
   height="796"
   viewBox="0 0 752 796"
   sodipodi:docname="AEGIS_logo_shield_yellow.ai"
   xmlns:inkscape="http://www.inkscape.org/namespaces/inkscape"
   xmlns:sodipodi="http://sodipodi.sourceforge.net/DTD/sodipodi-0.dtd"
   xmlns="http://www.w3.org/2000/svg"
   xmlns:svg="http://www.w3.org/2000/svg"><defs
     id="defs6"><linearGradient
       x1="0"
       y1="0"
       x2="1"
       y2="0"
       gradientUnits="userSpaceOnUse"
       gradientTransform="matrix(168.9859,0,0,-168.9859,197.54001,257.04129)"
       spreadMethod="pad"
       id="linearGradient26"><stop
         style="stop-opacity:1;stop-color:#dbbb66"
         offset="0"
         id="stop22" /><stop
         style="stop-opacity:1;stop-color:#dbbb66"
         offset="1"
         id="stop24" /></linearGradient><linearGradient
       x1="0"
       y1="0"
       x2="1"
       y2="0"
       gradientUnits="userSpaceOnUse"
       gradientTransform="matrix(305.90253,0,0,-305.90253,129.0834,323.75214)"
       spreadMethod="pad"
       id="linearGradient46"><stop
         style="stop-opacity:1;stop-color:#dbbb66"
         offset="0"
         id="stop42" /><stop
         style="stop-opacity:1;stop-color:#dbbb66"
         offset="1"
         id="stop44" /></linearGradient><linearGradient
       x1="0"
       y1="0"
       x2="1"
       y2="0"
       gradientUnits="userSpaceOnUse"
       gradientTransform="matrix(564,0,0,-564,2.39e-5,298.49997)"
       spreadMethod="pad"
       id="linearGradient66"><stop
         style="stop-opacity:1;stop-color:#dbbb66"
         offset="0"
         id="stop62" /><stop
         style="stop-opacity:1;stop-color:#dbbb66"
         offset="1"
         id="stop64" /></linearGradient><linearGradient
       x1="0"
       y1="0"
       x2="1"
       y2="0"
       gradientUnits="userSpaceOnUse"
       gradientTransform="matrix(-116.76261,662.19366,662.19366,116.76261,325.46054,-84.096115)"
       spreadMethod="pad"
       id="linearGradient86"><stop
         style="stop-opacity:1;stop-color:#dbbb66"
         offset="0"
         id="stop82" /><stop
         style="stop-opacity:1;stop-color:#dbbb66"
         offset="1"
         id="stop84" /></linearGradient><linearGradient
       x1="0"
       y1="0"
       x2="1"
       y2="0"
       gradientUnits="userSpaceOnUse"
       gradientTransform="matrix(-104.38303,591.9856,591.9856,104.38303,363.06271,14.293544)"
       spreadMethod="pad"
       id="linearGradient106"><stop
         style="stop-opacity:1;stop-color:#dbbb66"
         offset="0"
         id="stop102" /><stop
         style="stop-opacity:1;stop-color:#dbbb66"
         offset="1"
         id="stop104" /></linearGradient><clipPath
       clipPathUnits="userSpaceOnUse"
       id="clipPath116"><path
         d="M 0,597 H 564 V 0 H 0 Z"
         id="path114" /></clipPath></defs><sodipodi:namedview
     id="namedview4"
     pagecolor="#ffffff"
     bordercolor="#666666"
     borderopacity="1.0"
     inkscape:pageshadow="2"
     inkscape:pageopacity="0.0"
     inkscape:pagecheckerboard="0" /><g
     id="g8"
     inkscape:groupmode="layer"
     inkscape:label="AEGIS_logo_shield_yellow"
     transform="matrix(1.3333333,0,0,-1.3333333,0,796)"><g
       id="g10"><g
         id="g12"><g
           id="g18"><g
             id="g20"><path
               d="m 197.54,162.193 h 0.016 c 22.197,20.52 51.874,33.063 84.485,33.063 v 0 c 32.61,0 62.288,-12.543 84.484,-33.063 v 0 h 0.001 l -84.493,189.696 z"
               style="fill:url(#linearGradient26);stroke:none"
               id="path28" /></g></g></g></g><g
       id="g30"><g
         id="g32"><g
           id="g38"><g
             id="g40"><path
               d="m 129.083,165.001 24.302,-23.762 128.65,287.127 128.694,-287.228 24.257,23.863 -152.951,341.365 z"
               style="fill:url(#linearGradient46);stroke:none"
               id="path48" /></g></g></g></g><g
       id="g50"><g
         id="g52"><g
           id="g58"><g
             id="g60"><path
               d="m 282.001,597 c 0,0 -111.321,0 -133.721,-12.221 v 0 c -0.592,-0.323 -1.463,-0.985 -1.952,-1.451 v 0 C 100.839,539.899 47.927,506.953 0,476 v 0 C 41,162 282.001,0 282.001,0 v 0 c 0,0 240.999,162 281.998,476 v 0 c -47.924,30.951 -100.833,63.896 -146.322,107.322 v 0 c -0.491,0.469 -1.368,1.135 -1.964,1.46 v 0 C 393.3,597 282.001,597 282.001,597 Z M 35,463 c 52,31 111.513,83.06 127,96.335 v 0 c 21.001,18 106.25,19 120.001,19 v 0 c 13.749,0 98.999,-1 119.998,-19 v 0 C 417.487,546.06 477,494 528.999,463 v 0 C 488.722,174.242 282.001,30.251 282.001,30.251 v 0 C 282.001,30.251 75.279,174.242 35,463"
               style="fill:url(#linearGradient66);stroke:none"
               id="path68" /></g></g></g></g><g
       id="g70"><g
         id="g72"><g
           id="g78"><g
             id="g80"><path
               d="m 197.54,162.193 h 0.016 c 22.197,20.52 51.874,33.063 84.485,33.063 v 0 c 32.61,0 62.288,-12.543 84.484,-33.063 v 0 h 0.001 l -84.493,189.696 z"
               style="fill:url(#linearGradient86);stroke:none"
               id="path88" /></g></g></g></g><g
       id="g90"><g
         id="g92"><g
           id="g98"><g
             id="g100"><path
               d="m 282,597 c 0,0 -111.32,0 -133.72,-12.221 v 0 c -0.592,-0.323 -1.464,-0.985 -1.952,-1.451 v 0 C 100.839,539.899 47.927,506.953 0,476 v 0 C 40.999,162 282,0 282,0 v 0 c 0,0 241,162 281.999,476 v 0 c -47.924,30.951 -100.833,63.896 -146.322,107.322 v 0 c -0.491,0.469 -1.368,1.135 -1.964,1.46 v 0 C 393.3,597 282,597 282,597 Z M 35,463 c 51.999,31 111.513,83.06 127,96.335 v 0 c 21,18 106.249,19 120,19 v 0 c 13.75,0 99,-1 119.999,-19 v 0 C 417.487,546.06 477,494 528.999,463 v 0 C 512.955,347.976 470.501,255.923 425.221,186.792 v 0 L 282.035,506.366 138.819,186.729 C 93.525,255.867 51.05,347.941 35,463 M 160.063,156.143 282.035,428.366 403.979,156.201 C 342.214,72.194 282,30.251 282,30.251 v 0 c 0,0 -60.187,41.925 -121.937,125.892"
               style="fill:url(#linearGradient106);stroke:none"
               id="path108" /></g></g></g></g><g
       id="g110"><g
         id="g112"
         clip-path="url(#clipPath116)"><g
           id="g118"
           transform="translate(403.033,163.7933)"><path
             d="M 0,0 -120.999,270.052 -242.023,-0.06 c 60.87,-83.877 120.99,-125.753 120.99,-125.753 0,0 60.148,41.897 121.033,125.813 m -361.066,294.73 c 14.934,-107.061 53.413,-193.641 95.296,-259.788 L -120.999,358.052 23.744,35.007 C 65.612,101.145 104.071,187.703 119,294.73 68.467,324.855 10.633,375.447 -4.418,388.347 c -20.407,17.492 -103.253,18.464 -116.615,18.464 -13.362,0 -96.207,-0.972 -116.615,-18.464 -15.05,-12.9 -72.885,-63.492 -123.418,-93.617 m 522.033,17.477 c -41,-314 -282,-476 -282,-476 0,0 -241,162 -282,476 47.927,30.952 100.839,63.899 146.328,107.327 0.488,0.466 1.36,1.128 1.953,1.451 22.398,12.222 133.719,12.222 133.719,12.222 0,0 111.3,0 133.713,-12.218 0.596,-0.325 1.473,-0.991 1.965,-1.46 45.488,-43.425 98.397,-76.371 146.322,-107.322 M -39.898,-0.052 h -10e-4 c -21.306,19.695 -49.79,31.735 -81.092,31.735 -31.301,0 -59.786,-12.04 -81.091,-31.735 h -0.016 l 81.099,182.077 z"
             style="fill:#e6be51;fill-opacity:1;fill-rule:nonzero;stroke:none"
             id="path120" /></g></g></g></g></svg>
