<?xml version="1.0" standalone="no"?>
<!DOCTYPE svg PUBLIC "-//W3C//DTD SVG 20010904//EN"
 "http://www.w3.org/TR/2001/REC-SVG-20010904/DTD/svg10.dtd">
<svg version="1.0" xmlns="http://www.w3.org/2000/svg"
 width="300.000000pt" height="281.000000pt" viewBox="0 0 300.000000 281.000000"
 preserveAspectRatio="xMidYMid meet">
<metadata>
Created by potrace 1.10, written by Peter Selinger 2001-2011
</metadata>
<g transform="translate(0.000000,281.000000) scale(0.100000,-0.100000)"
fill="#000000" stroke="none">
<path d="M1323 2674 c-87 -75 -180 -154 -207 -177 -27 -23 -54 -46 -60 -52 -6
-5 -40 -34 -76 -64 -36 -30 -69 -60 -75 -65 -5 -6 -35 -31 -65 -56 -30 -25
-57 -47 -60 -50 -3 -3 -77 -66 -165 -140 -88 -74 -162 -137 -165 -140 -3 -3
-32 -27 -65 -55 -117 -97 -145 -127 -145 -154 0 -15 51 -159 113 -321 63 -162
131 -344 153 -404 30 -85 48 -119 79 -151 35 -37 251 -232 385 -349 25 -22 72
-64 106 -95 33 -31 78 -72 100 -91 21 -19 94 -85 162 -145 136 -121 163 -139
195 -131 18 4 188 152 507 440 19 18 96 86 170 151 74 66 167 151 206 190 68
67 73 74 117 195 25 69 78 208 117 310 160 415 157 405 124 442 -18 19 -93 84
-353 302 -58 49 -131 110 -161 136 -123 107 -231 199 -310 265 -177 149 -358
304 -382 328 -10 9 -33 17 -52 17 -30 0 -56 -18 -193 -136z m737 -352 c217
-185 464 -394 548 -465 83 -72 152 -133 152 -136 0 -4 -44 -124 -99 -267 -54
-142 -124 -328 -156 -412 l-58 -153 -361 -323 c-199 -178 -407 -364 -464 -415
l-103 -93 -42 35 c-23 19 -233 207 -466 416 l-424 381 -122 323 c-67 177 -139
365 -160 417 l-38 94 24 20 c14 12 153 130 309 263 157 132 427 363 600 511
l314 270 76 -65 c41 -36 253 -216 470 -401z"/>
<path d="M1419 2356 c-182 -159 -765 -661 -803 -693 l-39 -32 86 -238 c48
-131 97 -264 109 -295 21 -53 41 -74 278 -289 140 -127 302 -276 360 -329
l105 -98 265 240 c146 132 310 282 365 333 l100 93 104 292 104 291 -39 32
c-61 50 -457 390 -584 502 -63 55 -160 139 -216 187 l-101 86 -94 -82z m136
-4 c17 -15 62 -54 100 -86 39 -33 99 -85 135 -116 170 -150 442 -384 538 -465
39 -33 72 -67 72 -75 0 -15 -173 -510 -187 -534 -7 -12 -151 -146 -359 -335
-73 -67 -223 -203 -269 -245 -22 -20 -48 -41 -57 -47 -18 -10 -40 9 -539 468
l-166 153 -46 122 c-94 251 -148 410 -145 423 2 7 111 106 243 220 132 114
255 221 274 238 19 17 80 69 135 116 56 46 128 109 160 138 33 29 64 53 70 53
6 0 25 -13 41 -28z"/>
<path d="M1478 2133 c-15 -16 -142 -259 -283 -541 -191 -381 -255 -519 -251
-536 7 -27 155 -176 186 -188 43 -16 60 6 165 207 31 61 64 116 73 123 11 8
54 12 132 12 110 0 118 1 139 24 26 27 24 40 -15 118 -37 73 -63 88 -155 88
-66 0 -79 3 -79 16 0 24 114 234 125 231 6 -2 94 -169 196 -372 115 -229 194
-374 208 -384 21 -13 26 -13 59 5 37 20 112 106 112 129 0 7 -77 165 -171 351
-341 674 -379 744 -407 744 -5 0 -20 -12 -34 -27z m153 -235 c64 -128 187
-370 272 -537 l156 -304 -56 -51 c-31 -28 -58 -52 -62 -54 -3 -1 -101 188
-217 420 l-211 422 -99 -194 -99 -195 123 -3 122 -3 35 -70 c19 -39 35 -74 35
-78 0 -3 -64 -5 -142 -3 l-143 3 -95 -180 c-52 -99 -98 -179 -102 -178 -4 1
-45 40 -92 86 l-86 83 268 534 c147 293 269 534 272 534 3 0 57 -105 121 -232z"/>
</g>
</svg>
